PathFileType	4	(X/Y/Z)	/Users/visionmauri/Downloads/Videos/OAW08-top_Sports2D/OAW08-top_Sports2D_px_person00.trc
DataRate	CameraRate	NumFrames	NumMarkers	Units	OrigDataRate	OrigDataStartFrame	OrigNumFrames
30.0	30.0	7	22	m	30.0	1072	2144
Frame#	Time	Hip			RHip			RKnee			RAnkle			RBigToe			RSmallToe			RHeel			LHip			LKnee			LAnkle			LBigToe			LSmallToe			LHeel			Neck			Head			Nose			RShoulder			RElbow			RWrist			LShoulder			LElbow			LWrist			
		X1	Y1	Z1	X2	Y2	Z2	X3	Y3	Z3	X4	Y4	Z4	X5	Y5	Z5	X6	Y6	Z6	X7	Y7	Z7	X8	Y8	Z8	X9	Y9	Z9	X10	Y10	Z10	X11	Y11	Z11	X12	Y12	Z12	X13	Y13	Z13	X14	Y14	Z14	X15	Y15	Z15	X16	Y16	Z16	X17	Y17	Z17	X18	Y18	Z18	X19	Y19	Z19	X20	Y20	Z20	X21	Y21	Z21	X22	Y22	Z22
1072	35.7500077772593	529.5517039730496	768.7217705868244	0.0	506.60095255635093	770.311990664728	0.0	506.58082634425693	869.9088609483375	0.0	508.37050474277004	973.0563459620583	0.0	501.9735261369083	1008.5692998343073	0.0	490.37469627180553	1005.0593006624179	0.0	515.284561434091	988.4215080337867	0.0	553.3833191580252	769.4576057711522	0.0	545.3560290005232	856.994460198441	0.0	537.6947523784236	933.8931137748627	0.0	536.1198070477751	970.8891263005314	0.0	547.7047568205832	967.1360703268616	0.0	535.175589379903	943.7185303086878	0.0	528.9191724924502	640.3270034724534	0.0	530.3601052377269	574.040517422221	0.0	527.8989070395959	637.2963372950841	0.0	483.2778925754146	637.1070553353471	0.0	460.4181077572508	707.4949945930931	0.0	446.086085851122	773.0427404961694	0.0	575.05957368408	638.6218815966392	0.0	590.1905819919283	712.6242955669928	0.0	588.0631369393868	776.3793314451607	0.0
1073	35.78335666511122	529.3133536909278	770.8099453986282	0.0	505.71054334774567	773.170194708264	0.0	506.165881933655	871.6287858713528	0.0	508.8020018350124	975.6691088540794	0.0	503.9623013564998	1013.683058056572	0.0	490.69575520303584	1009.6126496350668	0.0	515.9680039225409	990.3394909274373	0.0	553.4166862300541	772.3249824004422	0.0	546.3202015921414	857.0872239504967	0.0	538.1696403196363	931.6705987695403	0.0	536.2523398766554	971.1969972487011	0.0	548.1225640310919	966.9450487716671	0.0	535.8261006293965	939.1094209821765	0.0	527.4050029014162	641.9504585888649	0.0	528.940342482022	575.8918902076202	0.0	526.3140703879551	639.327582999846	0.0	481.6775871337585	638.5128374838833	0.0	459.37928571004954	710.7937255398416	0.0	444.7778665089405	777.3093700707873	0.0	574.014511865954	639.9041157624504	0.0	589.8837713124116	714.2353802397461	0.0	587.1077766069468	778.6128004444957	0.0
1074	35.816705552963136	528.5012808196748	772.6968907648547	0.0	504.1165635251643	775.6901604691047	0.0	505.3779500195417	873.7047526264305	0.0	509.03320748040113	977.7370586174014	0.0	505.2123530430996	1016.5696276498954	0.0	490.33256492410646	1011.6895841871815	0.0	515.915302374901	991.2950086378459	0.0	553.3201338276989	774.6772456054284	0.0	547.9706916367096	858.1852780993042	0.0	539.126065894296	927.5197673204915	0.0	535.898702711577	971.1596019277586	0.0	548.3242813943368	965.5731374946761	0.0	536.3367063449894	932.0908847194992	0.0	525.9709683933339	642.7593544767151	0.0	527.8150774417978	578.2235065902528	0.0	525.1318850085464	641.7342193921553	0.0	480.1615690563771	640.0281029888888	0.0	458.22626911369196	714.3099624636741	0.0	443.4665125761076	781.7094501625587	0.0	572.7246579673474	640.5911935861201	0.0	589.6198915610986	715.9491138138382	0.0	587.0849702623077	780.9805707232631	0.0
1075	35.85005444081506	527.4707847357884	774.8725995702184	0.0	502.50818981329604	777.6744374750534	0.0	504.45317110151467	875.9800479974049	0.0	509.01847894542675	978.8644021808343	0.0	505.29722203053126	1017.2702623208297	0.0	489.68798418202726	1011.877573016147	0.0	515.9185477821808	991.8751023417075	0.0	552.7687381615767	776.4210581993578	0.0	549.5628687630021	860.8535891028806	0.0	540.3236878160234	923.9037981936108	0.0	536.0011044120317	970.5748415288962	0.0	548.8817786599392	963.5937061843655	0.0	537.0356563021056	925.9280471888585	0.0	524.9619455712188	643.4137033789735	0.0	526.427238470489	579.4151127315042	0.0	524.4748106616844	643.7299854189766	0.0	478.7957799771491	641.773748720068	0.0	457.03382650109995	717.3378053900183	0.0	442.30458826524574	785.8082150072928	0.0	571.8307520556135	640.9289989957537	0.0	589.3090948913169	717.5765549849677	0.0	587.4049293752851	783.3303896795551	0.0
1076	35.88340332866698	526.631567563777	777.3589147330199	0.0	501.38381651413664	779.6884718106531	0.0	503.65218491645385	878.676515803033	0.0	508.8397224429762	979.6740061398366	0.0	504.95992406448727	1017.0799679596389	0.0	489.3347828395571	1011.5721903899388	0.0	516.2046421413486	992.2298079293204	0.0	552.0340109945004	778.3412244016746	0.0	550.745801932514	865.2419400423188	0.0	541.394645126172	922.9536494592759	0.0	537.6657490615639	970.724528601999	0.0	550.5784882683033	963.5819252876985	0.0	537.6759349000348	924.0441529688478	0.0	524.0016312852256	643.6315422276205	0.0	524.6606718589579	580.1594171112428	0.0	523.690896813436	644.3848222933876	0.0	477.8005147000821	643.2580241243003	0.0	455.88499900568104	719.9337603699324	0.0	441.46289379121976	789.4351937598369	0.0	571.3736961194329	641.1518020329346	0.0	588.8829336408746	719.169421743076	0.0	587.7318313309946	785.4683323751512	0.0
1077	35.9167522165189	526.0724961995556	779.9098555983926	0.0	500.73743399589966	782.1933529019286	0.0	503.10129135495873	881.80707709578	0.0	508.63276262299263	980.8796202092308	0.0	504.8608093031608	1017.0716852040474	0.0	489.3957485575782	1011.6474618153111	0.0	516.3851372358707	992.4900153015747	0.0	551.3930507983105	780.7482210717963	0.0	551.5603616401055	870.6436942570645	0.0	542.226906924203	925.4030079731534	0.0	540.6502264854505	973.9137698572115	0.0	553.3944091512426	967.686111043827	0.0	538.0233968494554	927.3473977501368	0.0	522.8213613174112	643.4831089021864	0.0	523.5618668466515	581.850604291718	0.0	523.1487399957753	644.3210113891707	0.0	477.1354270072935	643.959568843171	0.0	454.8746531796661	722.5825763918955	0.0	441.04498988419675	792.705413916123	0.0	570.99345099449	641.2615255059301	0.0	588.3996738930973	720.5628211309572	0.0	588.342086510102	786.9991183973266	0.0
1078	35.95010110437082	525.8117528651848	782.2332395875484	0.0	500.4376121654994	784.7863429893904	0.0	502.7527586949668	884.5878012012587	0.0	508.6407435952093	982.0067490242926	0.0	504.75170364104974	1017.5974673448716	0.0	489.5120781305247	1012.3749096644676	0.0	516.2736868858487	992.9300947547645	0.0	550.8399976337149	782.9583199520162	0.0	551.9403786630741	875.5533553906516	0.0	543.0503240747321	931.7516449904247	0.0	543.4707702156779	981.2701001822952	0.0	556.3608435249212	975.7931086960452	0.0	538.6592093054757	935.1449986828444	0.0	521.9029052783436	643.4050690859304	0.0	523.5285187447267	583.2104430839554	0.0	523.3296031889349	644.764205090708	0.0	476.34701383464517	644.0624857675343	0.0	454.2741240149239	724.9723137266394	0.0	441.3150598409639	795.6160969086058	0.0	570.6213978282219	641.3115970237287	0.0	588.3316403324965	721.2785665848647	0.0	589.9729172032236	787.921288475993	0.0
